<svg xmlns="http://www.w3.org/2000/svg" width="430" height="430" style="width:100%;height:100%;transform:translate3d(0,0,0);content-visibility:visible" viewBox="0 0 430 430"><defs><clipPath id="a"><path d="M0 0h430v430H0z"/></clipPath><clipPath id="e"><path d="M0 0h430v430H0z"/></clipPath><clipPath id="d"><path d="M0 0h430v430H0z"/></clipPath><clipPath id="c"><path d="M0 0h430v430H0z"/></clipPath><clipPath id="b"><path d="M0 0h430v430H0z"/></clipPath></defs><g fill="none" clip-path="url(#a)"><g clip-path="url(#b)" style="display:none"><g style="display:none"><path class="secondary"/><path class="secondary"/></g><path class="secondary" style="display:none"/><path class="primary" style="display:none"/><path class="primary" style="display:none"/><path class="primary" style="display:none"/></g><g clip-path="url(#c)" style="display:none"><g style="display:none"><path class="secondary"/><path class="secondary"/></g><path class="primary" style="display:none"/><path class="primary" style="display:none"/><path class="primary" style="display:none"/></g><g clip-path="url(#d)" style="display:block"><path stroke="#000" stroke-linecap="round" stroke-linejoin="round" stroke-width="6" d="M215 60v50m.234-25H240m-50 0h25.234M115 50c0-11.046 8.954-20 20-20h160c11.046 0 20 8.954 20 20v70c0 11.046-8.954 20-20 20h-56.667L215 175l-23.333-35H135c-11.046 0-20-8.954-20-20z" class="secondary" style="display:none"/><path stroke="#000" stroke-linecap="round" stroke-linejoin="round" stroke-width="6" d="M215 60v50m-25-25h50M115 50c0-11.046 8.954-20 20-20h160c11.046 0 20 8.954 20 20v70c0 11.046-8.954 20-20 20h-56.667L215 175l-23.333-35H135c-11.046 0-20-8.954-20-20z" class="secondary" style="display:block"/><path stroke="#000" stroke-linejoin="round" stroke-width="6" d="M30-42.5c0 16.569-13.431 30-30 30s-30-13.431-30-30 13.431-30 30-30 30 13.431 30 30zm-17.783 115H-65v-15c0-24.853 20.147-45 45-45h40a44.8 44.8 0 0 1 21.493 5.454" class="primary" style="display:block" transform="translate(115 307.5)"/><path stroke="#000" stroke-linejoin="round" stroke-width="6" d="M30-42.5c0 16.569-13.431 30-30 30s-30-13.431-30-30 13.431-30 30-30 30 13.431 30 30zm-40.145 115H65v-15c0-24.853-20.147-45-45-45h-40a44.8 44.8 0 0 0-23.288 6.487" class="primary" style="display:block" transform="translate(315 307.5)"/><path stroke="#000" stroke-linejoin="round" stroke-width="6" d="M-35 17.5c-30.376 0-55 24.624-55 55v25H90v-25c0-30.376-24.624-55-55-55zm80-70c0 24.853-20.147 45-45 45s-45-20.147-45-45 20.147-45 45-45 45 20.147 45 45z" class="primary" style="display:block" transform="translate(215 302.5)"/><path class="secondary" style="display:none"/></g><g clip-path="url(#e)" style="display:none"><g style="display:none"><path class="primary"/><path class="primary"/></g><g style="display:none"><path class="primary"/><path class="primary"/></g><g style="display:none"><path class="primary"/><path class="primary"/></g><g style="display:none"><path class="secondary"/><path class="secondary"/></g></g></g></svg>